<svg width="626" height="289" viewBox="0 0 626 289" fill="none" xmlns="http://www.w3.org/2000/svg">
<path d="M88.8143 93.6975C84.5144 82.8059 78.1388 73.2571 69.9839 64.7527C61.829 56.3975 52.1914 49.8327 41.3676 45.0583C30.5438 40.2839 18.8304 38.0459 6.67219 38.0459V2.6856H0V127.267H6.67219V44.6107C21.4993 44.6107 35.2885 48.3407 47.8915 55.6515C60.4946 62.9623 70.577 73.1079 77.8423 85.7899C85.2558 98.4719 88.8143 112.347 88.8143 127.267H95.4865V2.6856H88.8143V93.6975Z" fill="#F5CD51"/>
<path d="M204.91 6.86319C197.052 2.238 188.601 0 179.26 0C169.919 0 161.467 2.238 153.609 6.86319C145.75 11.4884 139.523 17.7548 135.075 25.5132C130.478 33.4208 128.254 41.9251 128.254 51.3247V78.4791C128.254 87.7295 130.478 96.3831 135.075 104.291C139.671 112.198 145.899 118.465 153.609 122.941C161.319 127.417 169.919 129.804 179.26 129.804C188.601 129.804 197.052 127.566 204.91 122.941C212.769 118.315 218.996 112.049 223.444 104.291C227.892 96.5323 230.265 87.8787 230.265 78.4791V51.3247C230.265 42.0743 228.041 33.4208 223.444 25.5132C218.848 17.6056 212.621 11.3392 204.91 6.86319ZM223.741 78.6283C223.741 86.6851 221.813 94.2943 217.81 101.157C213.807 108.021 208.469 113.392 201.648 117.42C194.828 121.449 187.415 123.388 179.26 123.388C171.105 123.388 163.691 121.449 156.871 117.42C150.05 113.392 144.712 108.021 140.709 101.157C136.706 94.2943 134.778 86.8343 134.778 78.6283V51.4739C134.778 43.4171 136.706 35.8079 140.709 28.9448C144.712 22.0816 150.05 16.7104 156.871 12.682C163.691 8.65359 171.105 6.71399 179.26 6.71399C187.415 6.71399 194.828 8.65359 201.648 12.682C208.469 16.7104 213.807 22.0816 217.81 28.9448C221.813 35.8079 223.741 43.2679 223.741 51.4739V78.6283Z" fill="#F5CD51"/>
<path d="M355.999 87.1327L269.557 2.6856H262.588V127.267H269.26V11.3392L355.999 96.5323V127.267H362.671V2.6856H355.999V87.1327Z" fill="#F5CD51"/>
<path d="M400.035 127.267H487.218V120.703H406.559V66.3939H476.691V59.8291H406.559V9.25039H487.218V2.6856H400.035V127.267Z" fill="#F5CD51"/>
<path d="M574.55 69.2287L530.662 2.6856H522.803L571.14 76.2411V127.267H577.664V76.2411L626 2.6856H618.142L574.55 69.2287Z" fill="#F5CD51"/>
<path d="M85.2558 230.215C90.8901 222.904 93.7072 214.549 93.7072 205.299C93.7072 197.242 91.6315 190.081 87.6281 183.516C83.4765 176.951 77.9905 172.027 70.8735 168.596C67.7598 167.104 64.3496 166.059 60.6428 165.463C56.936 164.866 52.4879 164.418 47.1502 164.418H0V289H6.52392V246.18H56.936L87.3316 289H95.19L63.7565 244.837C72.5045 242.45 79.7698 237.526 85.4041 230.215H85.2558ZM52.9327 239.615H6.52392V170.983H47.1502C55.6016 170.983 62.1255 171.878 66.7219 173.818C73.0976 176.503 78.1388 180.681 81.6973 186.351C85.2558 192.02 87.1833 198.287 87.1833 205.15C87.1833 211.416 85.7006 217.086 82.5869 222.308C79.4732 227.53 75.3216 231.707 70.1322 234.84C64.9427 237.974 59.1601 239.466 53.081 239.466L52.9327 239.615Z" fill="#F5CD51"/>
<path d="M233.972 289L175.553 161.733L117.134 289H233.972ZM158.65 214.549L175.701 177.399L192.752 214.549H158.65ZM208.617 249.462H142.637L155.833 220.517H195.273L208.469 249.462H208.617ZM127.661 282.435L139.968 255.579H211.434L223.741 282.435H127.661Z" fill="#F5CD51"/>
<path d="M351.699 170.983V164.418H264.515V289H351.699V282.435H271.188V228.126H341.32V221.562H271.188V170.983H351.699Z" fill="#F5CD51"/>
</svg>
